<mxfile host="Electron" modified="2023-08-06T16:19:03.350Z" agent="Mozilla/5.0 (Windows NT 10.0; Win64; x64) AppleWebKit/537.36 (KHTML, like Gecko) draw.io/21.6.5 Chrome/114.0.5735.243 Electron/25.3.1 Safari/537.36" etag="SShMftyyalqCnNWVYDkU" version="21.6.5" type="device">
  <diagram name="PÃ¡gina-1" id="1D1LNqnCy9qLDgrtSgxh">
    <mxGraphModel dx="1562" dy="909" grid="1" gridSize="10" guides="1" tooltips="1" connect="1" arrows="1" fold="1" page="1" pageScale="1" pageWidth="1169" pageHeight="1654" math="0" shadow="0">
      <root>
        <mxCell id="0" />
        <mxCell id="1" parent="0" />
        <mxCell id="91Ra5xVZx5ba64652wot-73" value="" style="rounded=1;whiteSpace=wrap;html=1;strokeColor=#0000CC;strokeWidth=3;" vertex="1" parent="1">
          <mxGeometry x="302" y="393" width="950" height="260" as="geometry" />
        </mxCell>
        <mxCell id="91Ra5xVZx5ba64652wot-54" value="" style="rounded=1;whiteSpace=wrap;html=1;strokeColor=#336600;strokeWidth=3;" vertex="1" parent="1">
          <mxGeometry x="297" y="60" width="950" height="210" as="geometry" />
        </mxCell>
        <mxCell id="91Ra5xVZx5ba64652wot-55" value="&lt;b&gt;&lt;font style=&quot;font-size: 14px;&quot;&gt;Bank Account &lt;br&gt;Command API&lt;/font&gt;&lt;/b&gt;" style="text;html=1;align=center;verticalAlign=middle;resizable=0;points=[];autosize=1;strokeColor=none;fillColor=none;labelBackgroundColor=default;" vertex="1" parent="1">
          <mxGeometry x="255" y="89" width="120" height="50" as="geometry" />
        </mxCell>
        <mxCell id="91Ra5xVZx5ba64652wot-1" value="&lt;b&gt;&amp;lt;&amp;lt;interface&amp;gt;&amp;gt;&lt;br&gt;EventSourcingHandler&lt;/b&gt;" style="rounded=1;whiteSpace=wrap;html=1;fillColor=#d5e8d4;strokeColor=#82b366;" vertex="1" parent="1">
          <mxGeometry x="763" y="81" width="148" height="60" as="geometry" />
        </mxCell>
        <mxCell id="91Ra5xVZx5ba64652wot-2" value="&lt;b&gt;&amp;lt;&amp;lt;interface&amp;gt;&amp;gt;&lt;br&gt;EventStore&lt;br&gt;&lt;/b&gt;" style="rounded=1;whiteSpace=wrap;html=1;fillColor=#fff2cc;strokeColor=#d6b656;" vertex="1" parent="1">
          <mxGeometry x="1025" y="80" width="120" height="60" as="geometry" />
        </mxCell>
        <mxCell id="91Ra5xVZx5ba64652wot-3" value="" style="endArrow=classic;startArrow=classic;html=1;rounded=0;exitX=1;exitY=0.5;exitDx=0;exitDy=0;entryX=0;entryY=0.5;entryDx=0;entryDy=0;strokeWidth=2;" edge="1" parent="1" source="91Ra5xVZx5ba64652wot-1" target="91Ra5xVZx5ba64652wot-2">
          <mxGeometry width="50" height="50" relative="1" as="geometry">
            <mxPoint x="797" y="140" as="sourcePoint" />
            <mxPoint x="847" y="90" as="targetPoint" />
          </mxGeometry>
        </mxCell>
        <mxCell id="91Ra5xVZx5ba64652wot-4" value="&lt;b&gt;AggregateRoot&lt;br&gt;&lt;/b&gt;" style="rounded=1;whiteSpace=wrap;html=1;fillColor=#f8cecc;strokeColor=#b85450;" vertex="1" parent="1">
          <mxGeometry x="337" y="180" width="120" height="60" as="geometry" />
        </mxCell>
        <mxCell id="91Ra5xVZx5ba64652wot-6" value="&lt;b&gt;&amp;lt;&amp;lt;interface&amp;gt;&amp;gt;&lt;br&gt;EventPublisher&lt;br&gt;&lt;/b&gt;" style="rounded=1;whiteSpace=wrap;html=1;fillColor=#f5f5f5;strokeColor=#666666;fontColor=#333333;" vertex="1" parent="1">
          <mxGeometry x="821" y="180" width="120" height="60" as="geometry" />
        </mxCell>
        <mxCell id="91Ra5xVZx5ba64652wot-7" value="&lt;b&gt;&amp;lt;&amp;lt;interface&amp;gt;&amp;gt;&lt;br&gt;EventSoreRepository&lt;br&gt;&lt;/b&gt;" style="rounded=1;whiteSpace=wrap;html=1;fillColor=#e1d5e7;strokeColor=#9673a6;" vertex="1" parent="1">
          <mxGeometry x="990" y="180" width="190" height="60" as="geometry" />
        </mxCell>
        <mxCell id="91Ra5xVZx5ba64652wot-11" value="" style="group" vertex="1" connectable="0" parent="1">
          <mxGeometry x="1267" y="170" width="110" height="120" as="geometry" />
        </mxCell>
        <mxCell id="91Ra5xVZx5ba64652wot-9" value="&lt;b&gt;Mongo&lt;/b&gt;" style="shape=cylinder3;whiteSpace=wrap;html=1;boundedLbl=1;backgroundOutline=1;size=15;fillColor=#99FF99;strokeColor=#82b366;" vertex="1" parent="91Ra5xVZx5ba64652wot-11">
          <mxGeometry x="25" width="60" height="80" as="geometry" />
        </mxCell>
        <mxCell id="91Ra5xVZx5ba64652wot-10" value="&lt;b&gt;Event Store/&lt;br&gt;Write Database&lt;/b&gt;" style="text;html=1;align=center;verticalAlign=middle;resizable=0;points=[];autosize=1;strokeColor=none;fillColor=none;" vertex="1" parent="91Ra5xVZx5ba64652wot-11">
          <mxGeometry y="80" width="110" height="40" as="geometry" />
        </mxCell>
        <mxCell id="91Ra5xVZx5ba64652wot-12" value="" style="group" vertex="1" connectable="0" parent="1">
          <mxGeometry x="1267" y="520" width="110" height="120" as="geometry" />
        </mxCell>
        <mxCell id="91Ra5xVZx5ba64652wot-13" value="&lt;b&gt;MySQL&lt;/b&gt;" style="shape=cylinder3;whiteSpace=wrap;html=1;boundedLbl=1;backgroundOutline=1;size=15;fillColor=#dae8fc;strokeColor=#6c8ebf;" vertex="1" parent="91Ra5xVZx5ba64652wot-12">
          <mxGeometry x="25" width="60" height="80" as="geometry" />
        </mxCell>
        <mxCell id="91Ra5xVZx5ba64652wot-14" value="&lt;b&gt;Read &lt;br&gt;Database&lt;/b&gt;" style="text;html=1;align=center;verticalAlign=middle;resizable=0;points=[];autosize=1;strokeColor=none;fillColor=none;" vertex="1" parent="91Ra5xVZx5ba64652wot-12">
          <mxGeometry x="15" y="80" width="80" height="40" as="geometry" />
        </mxCell>
        <mxCell id="91Ra5xVZx5ba64652wot-15" value="&lt;b&gt;&amp;lt;&amp;lt;interface&amp;gt;&amp;gt;&lt;br&gt;EventConsumer&lt;br&gt;&lt;/b&gt;" style="rounded=1;whiteSpace=wrap;html=1;fillColor=#dae8fc;strokeColor=#6c8ebf;" vertex="1" parent="1">
          <mxGeometry x="744" y="412" width="190" height="60" as="geometry" />
        </mxCell>
        <mxCell id="91Ra5xVZx5ba64652wot-24" value="" style="group" vertex="1" connectable="0" parent="1">
          <mxGeometry x="777" y="496" width="150" height="157" as="geometry" />
        </mxCell>
        <mxCell id="91Ra5xVZx5ba64652wot-16" value="" style="rounded=1;whiteSpace=wrap;html=1;" vertex="1" parent="91Ra5xVZx5ba64652wot-24">
          <mxGeometry width="150" height="130" as="geometry" />
        </mxCell>
        <mxCell id="91Ra5xVZx5ba64652wot-17" value="" style="rounded=0;whiteSpace=wrap;html=1;fillColor=#fff2cc;strokeColor=#d6b656;" vertex="1" parent="91Ra5xVZx5ba64652wot-24">
          <mxGeometry x="25" y="10" width="40" height="35" as="geometry" />
        </mxCell>
        <mxCell id="91Ra5xVZx5ba64652wot-18" value="" style="rounded=0;whiteSpace=wrap;html=1;fillColor=#fff2cc;strokeColor=#d6b656;" vertex="1" parent="91Ra5xVZx5ba64652wot-24">
          <mxGeometry x="90" y="10" width="40" height="35" as="geometry" />
        </mxCell>
        <mxCell id="91Ra5xVZx5ba64652wot-19" value="" style="endArrow=classic;html=1;rounded=0;entryX=1;entryY=0.5;entryDx=0;entryDy=0;exitX=0;exitY=0.5;exitDx=0;exitDy=0;strokeWidth=2;" edge="1" parent="91Ra5xVZx5ba64652wot-24" source="91Ra5xVZx5ba64652wot-18" target="91Ra5xVZx5ba64652wot-17">
          <mxGeometry width="50" height="50" relative="1" as="geometry">
            <mxPoint x="80" y="95" as="sourcePoint" />
            <mxPoint x="130" y="45" as="targetPoint" />
          </mxGeometry>
        </mxCell>
        <mxCell id="91Ra5xVZx5ba64652wot-20" value="" style="rounded=0;whiteSpace=wrap;html=1;fillColor=#e3c800;strokeColor=#000000;fontColor=#000000;" vertex="1" parent="91Ra5xVZx5ba64652wot-24">
          <mxGeometry x="90" y="72" width="40" height="40" as="geometry" />
        </mxCell>
        <mxCell id="91Ra5xVZx5ba64652wot-21" value="" style="endArrow=classic;html=1;rounded=0;exitX=0.5;exitY=0;exitDx=0;exitDy=0;strokeWidth=2;entryX=0.5;entryY=1;entryDx=0;entryDy=0;" edge="1" parent="91Ra5xVZx5ba64652wot-24" source="91Ra5xVZx5ba64652wot-20" target="91Ra5xVZx5ba64652wot-18">
          <mxGeometry width="50" height="50" relative="1" as="geometry">
            <mxPoint x="100" y="38" as="sourcePoint" />
            <mxPoint x="120" y="50" as="targetPoint" />
          </mxGeometry>
        </mxCell>
        <mxCell id="91Ra5xVZx5ba64652wot-23" value="&lt;b&gt;Bank Account Entity&lt;/b&gt;" style="text;html=1;align=center;verticalAlign=middle;resizable=0;points=[];autosize=1;strokeColor=none;fillColor=none;" vertex="1" parent="91Ra5xVZx5ba64652wot-24">
          <mxGeometry x="6" y="127" width="140" height="30" as="geometry" />
        </mxCell>
        <mxCell id="91Ra5xVZx5ba64652wot-28" value="" style="group" vertex="1" connectable="0" parent="1">
          <mxGeometry x="267" y="180" width="70" height="70" as="geometry" />
        </mxCell>
        <mxCell id="91Ra5xVZx5ba64652wot-25" value="" style="ellipse;whiteSpace=wrap;html=1;aspect=fixed;strokeWidth=2;" vertex="1" parent="91Ra5xVZx5ba64652wot-28">
          <mxGeometry width="54.44444444444444" height="54.44444444444444" as="geometry" />
        </mxCell>
        <mxCell id="91Ra5xVZx5ba64652wot-26" value="" style="shape=image;html=1;verticalLabelPosition=bottom;verticalAlign=top;imageAspect=0;image=img/clipart/Gear_128x128.png" vertex="1" parent="91Ra5xVZx5ba64652wot-28">
          <mxGeometry x="12.09" y="19.09" width="31.82" height="30.91" as="geometry" />
        </mxCell>
        <mxCell id="91Ra5xVZx5ba64652wot-27" value="&lt;b&gt;&lt;font color=&quot;#007fff&quot;&gt;API&lt;/font&gt;&lt;/b&gt;" style="text;html=1;align=center;verticalAlign=middle;resizable=0;points=[];autosize=1;strokeColor=none;fillColor=none;" vertex="1" parent="91Ra5xVZx5ba64652wot-28">
          <mxGeometry x="10.272727272727273" y="-2" width="40" height="30" as="geometry" />
        </mxCell>
        <mxCell id="91Ra5xVZx5ba64652wot-46" value="" style="group" vertex="1" connectable="0" parent="1">
          <mxGeometry x="375" y="300" width="536" height="58" as="geometry" />
        </mxCell>
        <mxCell id="91Ra5xVZx5ba64652wot-31" value="" style="rounded=1;whiteSpace=wrap;html=1;strokeColor=#CC0000;strokeWidth=2;" vertex="1" parent="91Ra5xVZx5ba64652wot-46">
          <mxGeometry x="76" y="8" width="460" height="50" as="geometry" />
        </mxCell>
        <mxCell id="91Ra5xVZx5ba64652wot-32" value="" style="rounded=1;whiteSpace=wrap;html=1;fillColor=#f5f5f5;fontColor=#333333;strokeColor=#666666;" vertex="1" parent="91Ra5xVZx5ba64652wot-46">
          <mxGeometry x="91" y="12" width="30" height="40" as="geometry" />
        </mxCell>
        <mxCell id="91Ra5xVZx5ba64652wot-33" value="" style="rounded=1;whiteSpace=wrap;html=1;fillColor=#f5f5f5;fontColor=#333333;strokeColor=#666666;" vertex="1" parent="91Ra5xVZx5ba64652wot-46">
          <mxGeometry x="136" y="12" width="30" height="40" as="geometry" />
        </mxCell>
        <mxCell id="91Ra5xVZx5ba64652wot-35" value="" style="rounded=1;whiteSpace=wrap;html=1;fillColor=#f5f5f5;fontColor=#333333;strokeColor=#666666;" vertex="1" parent="91Ra5xVZx5ba64652wot-46">
          <mxGeometry x="182" y="12" width="30" height="40" as="geometry" />
        </mxCell>
        <mxCell id="91Ra5xVZx5ba64652wot-37" value="" style="rounded=1;whiteSpace=wrap;html=1;fillColor=#f5f5f5;fontColor=#333333;strokeColor=#666666;" vertex="1" parent="91Ra5xVZx5ba64652wot-46">
          <mxGeometry x="226" y="13" width="30" height="40" as="geometry" />
        </mxCell>
        <mxCell id="91Ra5xVZx5ba64652wot-38" value="" style="rounded=1;whiteSpace=wrap;html=1;fillColor=#f5f5f5;fontColor=#333333;strokeColor=#666666;" vertex="1" parent="91Ra5xVZx5ba64652wot-46">
          <mxGeometry x="271" y="13" width="30" height="40" as="geometry" />
        </mxCell>
        <mxCell id="91Ra5xVZx5ba64652wot-39" value="" style="rounded=1;whiteSpace=wrap;html=1;fillColor=#f5f5f5;fontColor=#333333;strokeColor=#666666;" vertex="1" parent="91Ra5xVZx5ba64652wot-46">
          <mxGeometry x="316" y="13" width="30" height="40" as="geometry" />
        </mxCell>
        <mxCell id="91Ra5xVZx5ba64652wot-40" value="" style="rounded=1;whiteSpace=wrap;html=1;fillColor=#f5f5f5;fontColor=#333333;strokeColor=#666666;" vertex="1" parent="91Ra5xVZx5ba64652wot-46">
          <mxGeometry x="363" y="13" width="30" height="40" as="geometry" />
        </mxCell>
        <mxCell id="91Ra5xVZx5ba64652wot-41" value="" style="rounded=1;whiteSpace=wrap;html=1;fillColor=#f5f5f5;fontColor=#333333;strokeColor=#666666;" vertex="1" parent="91Ra5xVZx5ba64652wot-46">
          <mxGeometry x="406" y="13" width="30" height="40" as="geometry" />
        </mxCell>
        <mxCell id="91Ra5xVZx5ba64652wot-42" value="" style="rounded=1;whiteSpace=wrap;html=1;fillColor=#fa6800;fontColor=#000000;strokeColor=#C73500;" vertex="1" parent="91Ra5xVZx5ba64652wot-46">
          <mxGeometry x="448" y="13" width="30" height="40" as="geometry" />
        </mxCell>
        <mxCell id="91Ra5xVZx5ba64652wot-43" value="" style="rounded=1;whiteSpace=wrap;html=1;fillColor=#FFB570;fontColor=#000000;strokeColor=#C73500;dashed=1;" vertex="1" parent="91Ra5xVZx5ba64652wot-46">
          <mxGeometry x="492" y="13" width="30" height="40" as="geometry" />
        </mxCell>
        <mxCell id="91Ra5xVZx5ba64652wot-45" value="&lt;font style=&quot;font-size: 24px;&quot;&gt;&lt;b style=&quot;&quot;&gt;kafka&lt;/b&gt;&lt;/font&gt;" style="text;html=1;align=center;verticalAlign=middle;resizable=0;points=[];autosize=1;strokeColor=none;fillColor=none;fontColor=#990000;" vertex="1" parent="91Ra5xVZx5ba64652wot-46">
          <mxGeometry width="80" height="40" as="geometry" />
        </mxCell>
        <mxCell id="91Ra5xVZx5ba64652wot-52" value="" style="shape=flexArrow;endArrow=classic;html=1;rounded=0;entryX=0.5;entryY=0;entryDx=0;entryDy=0;labelBackgroundColor=#FFFF66;fillColor=#e3c800;strokeColor=#666666;strokeWidth=1;" edge="1" parent="91Ra5xVZx5ba64652wot-46" source="91Ra5xVZx5ba64652wot-6">
          <mxGeometry width="50" height="50" relative="1" as="geometry">
            <mxPoint x="500" y="-60" as="sourcePoint" />
            <mxPoint x="509.5" y="12" as="targetPoint" />
          </mxGeometry>
        </mxCell>
        <mxCell id="91Ra5xVZx5ba64652wot-47" value="" style="shape=flexArrow;endArrow=classic;html=1;rounded=0;exitX=0.5;exitY=1;exitDx=0;exitDy=0;entryX=0.5;entryY=0;entryDx=0;entryDy=0;labelBackgroundColor=#FFFF66;fillColor=#e3c800;strokeColor=#666666;strokeWidth=1;" edge="1" parent="1" target="91Ra5xVZx5ba64652wot-15">
          <mxGeometry width="50" height="50" relative="1" as="geometry">
            <mxPoint x="838" y="353" as="sourcePoint" />
            <mxPoint x="840" y="420" as="targetPoint" />
          </mxGeometry>
        </mxCell>
        <mxCell id="91Ra5xVZx5ba64652wot-58" value="&lt;b&gt;&amp;lt;&amp;lt;interface&amp;gt;&amp;gt;&lt;br&gt;CommandHandler&lt;/b&gt;" style="rounded=1;whiteSpace=wrap;html=1;fillColor=#d5e8d4;strokeColor=#82b366;" vertex="1" parent="1">
          <mxGeometry x="580" y="80" width="120" height="60" as="geometry" />
        </mxCell>
        <mxCell id="91Ra5xVZx5ba64652wot-59" value="" style="endArrow=classic;startArrow=classic;html=1;rounded=0;exitX=1;exitY=0.5;exitDx=0;exitDy=0;strokeWidth=2;" edge="1" parent="1" source="91Ra5xVZx5ba64652wot-58" target="91Ra5xVZx5ba64652wot-1">
          <mxGeometry width="50" height="50" relative="1" as="geometry">
            <mxPoint x="587" y="109.5" as="sourcePoint" />
            <mxPoint x="677" y="110" as="targetPoint" />
          </mxGeometry>
        </mxCell>
        <mxCell id="91Ra5xVZx5ba64652wot-61" value="&lt;b&gt;AccountAggregate&lt;br&gt;&lt;/b&gt;" style="rounded=1;whiteSpace=wrap;html=1;fillColor=#fff2cc;strokeColor=#d6b656;" vertex="1" parent="1">
          <mxGeometry x="580" y="180" width="120" height="60" as="geometry" />
        </mxCell>
        <mxCell id="91Ra5xVZx5ba64652wot-62" value="" style="endArrow=classic;html=1;rounded=0;entryX=1;entryY=0.5;entryDx=0;entryDy=0;exitX=0;exitY=0.5;exitDx=0;exitDy=0;strokeWidth=2;dashed=1;" edge="1" parent="1" source="91Ra5xVZx5ba64652wot-61" target="91Ra5xVZx5ba64652wot-4">
          <mxGeometry width="50" height="50" relative="1" as="geometry">
            <mxPoint x="537" y="210" as="sourcePoint" />
            <mxPoint x="587" y="160" as="targetPoint" />
          </mxGeometry>
        </mxCell>
        <mxCell id="91Ra5xVZx5ba64652wot-65" value="" style="endArrow=classic;startArrow=classic;html=1;rounded=0;exitX=0.5;exitY=0;exitDx=0;exitDy=0;entryX=0.5;entryY=1;entryDx=0;entryDy=0;strokeWidth=2;" edge="1" parent="1" source="91Ra5xVZx5ba64652wot-7" target="91Ra5xVZx5ba64652wot-2">
          <mxGeometry width="50" height="50" relative="1" as="geometry">
            <mxPoint x="1047" y="190" as="sourcePoint" />
            <mxPoint x="1097" y="140" as="targetPoint" />
          </mxGeometry>
        </mxCell>
        <mxCell id="91Ra5xVZx5ba64652wot-66" value="" style="endArrow=classic;html=1;rounded=0;entryX=0.5;entryY=0;entryDx=0;entryDy=0;strokeWidth=2;exitX=0.25;exitY=1;exitDx=0;exitDy=0;" edge="1" parent="1" source="91Ra5xVZx5ba64652wot-2" target="91Ra5xVZx5ba64652wot-6">
          <mxGeometry width="50" height="50" relative="1" as="geometry">
            <mxPoint x="1067" y="140" as="sourcePoint" />
            <mxPoint x="999" y="160" as="targetPoint" />
            <Array as="points">
              <mxPoint x="1055" y="160" />
              <mxPoint x="881" y="160" />
            </Array>
          </mxGeometry>
        </mxCell>
        <mxCell id="91Ra5xVZx5ba64652wot-67" value="" style="endArrow=classic;html=1;rounded=0;strokeWidth=2;dashed=1;exitX=0.5;exitY=1;exitDx=0;exitDy=0;entryX=0.608;entryY=0.033;entryDx=0;entryDy=0;entryPerimeter=0;" edge="1" parent="1" source="91Ra5xVZx5ba64652wot-1" target="91Ra5xVZx5ba64652wot-61">
          <mxGeometry width="50" height="50" relative="1" as="geometry">
            <mxPoint x="837.8240000000001" y="140" as="sourcePoint" />
            <mxPoint x="646" y="180" as="targetPoint" />
            <Array as="points">
              <mxPoint x="838" y="160" />
              <mxPoint x="652" y="160" />
            </Array>
          </mxGeometry>
        </mxCell>
        <mxCell id="91Ra5xVZx5ba64652wot-69" value="" style="endArrow=classic;html=1;rounded=0;entryX=0.25;entryY=0;entryDx=0;entryDy=0;exitX=0.25;exitY=1;exitDx=0;exitDy=0;dashed=1;strokeWidth=2;" edge="1" parent="1" source="91Ra5xVZx5ba64652wot-58" target="91Ra5xVZx5ba64652wot-61">
          <mxGeometry width="50" height="50" relative="1" as="geometry">
            <mxPoint x="517" y="170" as="sourcePoint" />
            <mxPoint x="567" y="120" as="targetPoint" />
          </mxGeometry>
        </mxCell>
        <mxCell id="91Ra5xVZx5ba64652wot-70" value="" style="endArrow=classic;startArrow=classic;html=1;rounded=0;exitX=1;exitY=0.5;exitDx=0;exitDy=0;strokeWidth=2;entryX=0;entryY=0.5;entryDx=0;entryDy=0;entryPerimeter=0;" edge="1" parent="1" source="91Ra5xVZx5ba64652wot-7" target="91Ra5xVZx5ba64652wot-9">
          <mxGeometry width="50" height="50" relative="1" as="geometry">
            <mxPoint x="1180" y="209.5" as="sourcePoint" />
            <mxPoint x="1243" y="209.5" as="targetPoint" />
          </mxGeometry>
        </mxCell>
        <mxCell id="91Ra5xVZx5ba64652wot-74" value="&lt;b&gt;&amp;lt;&amp;lt;interface&amp;gt;&amp;gt;&lt;br&gt;EventHandler&lt;br&gt;&lt;/b&gt;" style="rounded=1;whiteSpace=wrap;html=1;fillColor=#dae8fc;strokeColor=#6c8ebf;" vertex="1" parent="1">
          <mxGeometry x="1015" y="412" width="140" height="60" as="geometry" />
        </mxCell>
        <mxCell id="91Ra5xVZx5ba64652wot-75" value="" style="endArrow=classic;html=1;rounded=0;exitX=1;exitY=0.5;exitDx=0;exitDy=0;strokeWidth=2;" edge="1" parent="1" source="91Ra5xVZx5ba64652wot-15" target="91Ra5xVZx5ba64652wot-74">
          <mxGeometry width="50" height="50" relative="1" as="geometry">
            <mxPoint x="907" y="490" as="sourcePoint" />
            <mxPoint x="957" y="440" as="targetPoint" />
          </mxGeometry>
        </mxCell>
        <mxCell id="91Ra5xVZx5ba64652wot-76" value="&lt;b&gt;&amp;lt;&amp;lt;interface&amp;gt;&amp;gt;&lt;br&gt;AccountRepository&lt;br&gt;&lt;/b&gt;" style="rounded=1;whiteSpace=wrap;html=1;fillColor=#dae8fc;strokeColor=#6c8ebf;" vertex="1" parent="1">
          <mxGeometry x="1015" y="531" width="140" height="60" as="geometry" />
        </mxCell>
        <mxCell id="91Ra5xVZx5ba64652wot-77" value="" style="endArrow=classic;startArrow=classic;html=1;rounded=0;strokeWidth=2;entryX=0;entryY=0.5;entryDx=0;entryDy=0;entryPerimeter=0;" edge="1" parent="1" source="91Ra5xVZx5ba64652wot-76" target="91Ra5xVZx5ba64652wot-13">
          <mxGeometry width="50" height="50" relative="1" as="geometry">
            <mxPoint x="1155" y="539.5" as="sourcePoint" />
            <mxPoint x="1302" y="532.5" as="targetPoint" />
          </mxGeometry>
        </mxCell>
        <mxCell id="91Ra5xVZx5ba64652wot-79" value="&lt;b&gt;&amp;lt;&amp;lt;interface&amp;gt;&amp;gt;&lt;br&gt;QueryHandler&lt;br&gt;&lt;/b&gt;" style="rounded=1;whiteSpace=wrap;html=1;fillColor=#dae8fc;strokeColor=#6c8ebf;" vertex="1" parent="1">
          <mxGeometry x="560" y="531" width="140" height="60" as="geometry" />
        </mxCell>
        <mxCell id="91Ra5xVZx5ba64652wot-80" value="" style="endArrow=classic;startArrow=classic;html=1;rounded=0;strokeWidth=2;entryX=0;entryY=0.5;entryDx=0;entryDy=0;" edge="1" parent="1" source="91Ra5xVZx5ba64652wot-79" target="91Ra5xVZx5ba64652wot-16">
          <mxGeometry width="50" height="50" relative="1" as="geometry">
            <mxPoint x="697" y="560" as="sourcePoint" />
            <mxPoint x="760" y="560" as="targetPoint" />
          </mxGeometry>
        </mxCell>
        <mxCell id="91Ra5xVZx5ba64652wot-82" value="&lt;b&gt;&lt;font style=&quot;font-size: 14px;&quot;&gt;Bank Account &lt;br&gt;Query API&lt;/font&gt;&lt;/b&gt;" style="text;html=1;align=center;verticalAlign=middle;resizable=0;points=[];autosize=1;strokeColor=none;fillColor=none;labelBackgroundColor=default;" vertex="1" parent="1">
          <mxGeometry x="255" y="454" width="120" height="50" as="geometry" />
        </mxCell>
        <mxCell id="91Ra5xVZx5ba64652wot-83" value="" style="group" vertex="1" connectable="0" parent="1">
          <mxGeometry x="287" y="380" width="70" height="70" as="geometry" />
        </mxCell>
        <mxCell id="91Ra5xVZx5ba64652wot-84" value="" style="ellipse;whiteSpace=wrap;html=1;aspect=fixed;strokeWidth=2;" vertex="1" parent="91Ra5xVZx5ba64652wot-83">
          <mxGeometry width="54.44444444444444" height="54.44444444444444" as="geometry" />
        </mxCell>
        <mxCell id="91Ra5xVZx5ba64652wot-85" value="" style="shape=image;html=1;verticalLabelPosition=bottom;verticalAlign=top;imageAspect=0;image=img/clipart/Gear_128x128.png" vertex="1" parent="91Ra5xVZx5ba64652wot-83">
          <mxGeometry x="12.09" y="19.09" width="31.82" height="30.91" as="geometry" />
        </mxCell>
        <mxCell id="91Ra5xVZx5ba64652wot-86" value="&lt;b&gt;&lt;font color=&quot;#007fff&quot;&gt;API&lt;/font&gt;&lt;/b&gt;" style="text;html=1;align=center;verticalAlign=middle;resizable=0;points=[];autosize=1;strokeColor=none;fillColor=none;" vertex="1" parent="91Ra5xVZx5ba64652wot-83">
          <mxGeometry x="10.272727272727273" y="-2" width="40" height="30" as="geometry" />
        </mxCell>
        <mxCell id="91Ra5xVZx5ba64652wot-89" value="" style="endArrow=classic;startArrow=classic;html=1;rounded=0;entryX=0;entryY=0.5;entryDx=0;entryDy=0;strokeWidth=2;" edge="1" parent="1" target="91Ra5xVZx5ba64652wot-79">
          <mxGeometry width="50" height="50" relative="1" as="geometry">
            <mxPoint x="385" y="561" as="sourcePoint" />
            <mxPoint x="422" y="520" as="targetPoint" />
          </mxGeometry>
        </mxCell>
        <mxCell id="91Ra5xVZx5ba64652wot-100" value="&lt;font style=&quot;font-size: 14px;&quot;&gt;COMMANDS&lt;/font&gt;" style="swimlane;whiteSpace=wrap;html=1;" vertex="1" parent="1">
          <mxGeometry x="21.8" y="150" width="160" height="160" as="geometry">
            <mxRectangle x="20" y="90" width="120" height="30" as="alternateBounds" />
          </mxGeometry>
        </mxCell>
        <mxCell id="91Ra5xVZx5ba64652wot-102" value="OpenAccountCommand" style="text;html=1;align=center;verticalAlign=middle;resizable=0;points=[];autosize=1;strokeColor=none;fillColor=none;" vertex="1" parent="91Ra5xVZx5ba64652wot-100">
          <mxGeometry y="30" width="150" height="30" as="geometry" />
        </mxCell>
        <mxCell id="91Ra5xVZx5ba64652wot-103" value="DepositFundsCommand" style="text;html=1;align=center;verticalAlign=middle;resizable=0;points=[];autosize=1;strokeColor=none;fillColor=none;" vertex="1" parent="91Ra5xVZx5ba64652wot-100">
          <mxGeometry y="60" width="150" height="30" as="geometry" />
        </mxCell>
        <mxCell id="91Ra5xVZx5ba64652wot-104" value="WithdrawnFundsCommand" style="text;html=1;align=center;verticalAlign=middle;resizable=0;points=[];autosize=1;strokeColor=none;fillColor=none;" vertex="1" parent="91Ra5xVZx5ba64652wot-100">
          <mxGeometry x="-3" y="90" width="170" height="30" as="geometry" />
        </mxCell>
        <mxCell id="91Ra5xVZx5ba64652wot-105" value="CloseAccountCommand" style="text;html=1;align=center;verticalAlign=middle;resizable=0;points=[];autosize=1;strokeColor=none;fillColor=none;" vertex="1" parent="91Ra5xVZx5ba64652wot-100">
          <mxGeometry y="120" width="150" height="30" as="geometry" />
        </mxCell>
        <mxCell id="91Ra5xVZx5ba64652wot-107" value="" style="shape=flexArrow;endArrow=classic;html=1;rounded=0;entryX=-0.015;entryY=0.368;entryDx=0;entryDy=0;entryPerimeter=0;fillColor=#FFFF66;strokeColor=#000000;strokeWidth=2;" edge="1" parent="1">
          <mxGeometry width="50" height="50" relative="1" as="geometry">
            <mxPoint x="201.8" y="207" as="sourcePoint" />
            <mxPoint x="255.00000000000006" y="207.39999999999998" as="targetPoint" />
          </mxGeometry>
        </mxCell>
        <mxCell id="91Ra5xVZx5ba64652wot-109" value="&lt;font style=&quot;font-size: 14px;&quot;&gt;QUERIES&lt;/font&gt;" style="swimlane;whiteSpace=wrap;html=1;" vertex="1" parent="1">
          <mxGeometry x="20" y="412" width="197" height="160" as="geometry">
            <mxRectangle x="20" y="90" width="120" height="30" as="alternateBounds" />
          </mxGeometry>
        </mxCell>
        <mxCell id="91Ra5xVZx5ba64652wot-110" value="FindAllAccountQuery" style="text;html=1;align=center;verticalAlign=middle;resizable=0;points=[];autosize=1;strokeColor=none;fillColor=none;" vertex="1" parent="91Ra5xVZx5ba64652wot-109">
          <mxGeometry x="5" y="30" width="140" height="30" as="geometry" />
        </mxCell>
        <mxCell id="91Ra5xVZx5ba64652wot-111" value="FindAccountByIdQuery" style="text;html=1;align=center;verticalAlign=middle;resizable=0;points=[];autosize=1;strokeColor=none;fillColor=none;" vertex="1" parent="91Ra5xVZx5ba64652wot-109">
          <mxGeometry x="4" y="60" width="150" height="30" as="geometry" />
        </mxCell>
        <mxCell id="91Ra5xVZx5ba64652wot-112" value="FindAccountByHolderQuery" style="text;html=1;align=center;verticalAlign=middle;resizable=0;points=[];autosize=1;strokeColor=none;fillColor=none;" vertex="1" parent="91Ra5xVZx5ba64652wot-109">
          <mxGeometry x="7" y="90" width="170" height="30" as="geometry" />
        </mxCell>
        <mxCell id="91Ra5xVZx5ba64652wot-113" value="FindAccountsWithBalanceQuery" style="text;html=1;align=center;verticalAlign=middle;resizable=0;points=[];autosize=1;strokeColor=none;fillColor=none;" vertex="1" parent="91Ra5xVZx5ba64652wot-109">
          <mxGeometry x="4" y="120" width="200" height="30" as="geometry" />
        </mxCell>
        <mxCell id="91Ra5xVZx5ba64652wot-114" value="" style="shape=flexArrow;endArrow=classic;html=1;rounded=0;fillColor=#FFFF66;strokeColor=#000000;strokeWidth=2;" edge="1" parent="1" source="91Ra5xVZx5ba64652wot-82">
          <mxGeometry width="50" height="50" relative="1" as="geometry">
            <mxPoint x="270" y="480" as="sourcePoint" />
            <mxPoint x="217" y="482" as="targetPoint" />
          </mxGeometry>
        </mxCell>
        <mxCell id="91Ra5xVZx5ba64652wot-115" value="" style="endArrow=classic;html=1;rounded=0;exitX=0;exitY=0.5;exitDx=0;exitDy=0;strokeWidth=2;" edge="1" parent="1" source="91Ra5xVZx5ba64652wot-76">
          <mxGeometry width="50" height="50" relative="1" as="geometry">
            <mxPoint x="944" y="480" as="sourcePoint" />
            <mxPoint x="930" y="560" as="targetPoint" />
          </mxGeometry>
        </mxCell>
        <mxCell id="91Ra5xVZx5ba64652wot-116" value="" style="endArrow=classic;startArrow=classic;html=1;rounded=0;strokeWidth=2;entryX=0;entryY=0.5;entryDx=0;entryDy=0;exitX=0.998;exitY=0.42;exitDx=0;exitDy=0;exitPerimeter=0;" edge="1" parent="1" source="91Ra5xVZx5ba64652wot-55" target="91Ra5xVZx5ba64652wot-58">
          <mxGeometry width="50" height="50" relative="1" as="geometry">
            <mxPoint x="710" y="120" as="sourcePoint" />
            <mxPoint x="773" y="120" as="targetPoint" />
          </mxGeometry>
        </mxCell>
      </root>
    </mxGraphModel>
  </diagram>
</mxfile>
